<svg width="25" height="25" viewBox="0 0 25 25" fill="none" xmlns="http://www.w3.org/2000/svg">
<path d="M12.4462 19.6593C12.2476 19.6605 12.0532 19.6024 11.8876 19.4926C11.7221 19.3828 11.593 19.2262 11.5169 19.0428C11.4407 18.8593 11.4209 18.6574 11.46 18.4626C11.499 18.2679 11.5952 18.0892 11.7362 17.9493L17.0362 12.6593L11.7362 7.3693C11.5724 7.178 11.4868 6.93192 11.4965 6.68024C11.5063 6.42857 11.6106 6.18983 11.7887 6.01173C11.9668 5.83364 12.2055 5.72931 12.4572 5.71959C12.7089 5.70987 12.9549 5.79547 13.1462 5.9593L19.1462 11.9593C19.3325 12.1467 19.437 12.4001 19.437 12.6643C19.437 12.9285 19.3325 13.1819 19.1462 13.3693L13.1462 19.3693C12.96 19.554 12.7086 19.6582 12.4462 19.6593Z" fill="white"/>
<path d="M6.44625 19.6593C6.24762 19.6605 6.05315 19.6024 5.88763 19.4926C5.72211 19.3828 5.59304 19.2262 5.51687 19.0428C5.44071 18.8593 5.4209 18.6574 5.45997 18.4626C5.49904 18.2679 5.59522 18.0892 5.73625 17.9493L11.0362 12.6593L5.73625 7.3693C5.54794 7.181 5.44215 6.92561 5.44215 6.6593C5.44215 6.393 5.54794 6.13761 5.73625 5.9493C5.92455 5.761 6.17994 5.65521 6.44625 5.65521C6.71255 5.65521 6.96794 5.761 7.15625 5.9493L13.1562 11.9493C13.3425 12.1367 13.447 12.3901 13.447 12.6543C13.447 12.9185 13.3425 13.1719 13.1562 13.3593L7.15625 19.3593C7.06363 19.4538 6.95319 19.529 6.83131 19.5805C6.70944 19.632 6.57855 19.6588 6.44625 19.6593Z" fill="white"/>
</svg>
