<svg width="166" height="39" viewBox="0 0 166 39" fill="none" xmlns="http://www.w3.org/2000/svg">
<path d="M41.6041 31.2564V13.9142L26.8467 0.0361328L20.4193 6.06787L13.9917 0.0361328L0.128906 13.0728V38.0361H41.6041L16.8042 14.7379L20.4184 11.3461L41.6041 31.2564ZM26.8439 5.31623L37.7557 15.5781V22.358L23.2301 8.70761L26.8439 5.31623ZM3.97744 34.1877V20.0186L19.0599 34.1877H3.97744ZM11.1818 14.7366L31.8867 34.1877H24.6813L3.97757 14.7366L13.9944 5.31623L17.6074 8.70662L11.1818 14.7366Z" fill="#FF6600"/>
<path d="M57.9911 29.0361L66.1211 7.82613H70.5911L78.6911 29.0361H74.6411L73.2311 25.1061H63.4511L62.0111 29.0361H57.9911ZM64.6511 21.7161H72.0011L68.3411 11.6061L64.6511 21.7161ZM83.3324 29.0361L78.3824 13.2261H82.4324L85.6124 25.0161L89.0024 13.2261H93.3224L96.7124 25.0161L99.8624 13.2261H103.852L98.9024 29.0361H94.5224L91.1024 17.6361L87.7124 29.0361H83.3324ZM105.784 29.0361V13.2261H109.204L109.414 15.2361C109.834 14.6761 110.324 14.2361 110.884 13.9161C111.444 13.5961 112.034 13.3661 112.654 13.2261C113.274 13.0661 113.854 12.9861 114.394 12.9861C115.894 12.9861 117.074 13.3161 117.934 13.9761C118.814 14.6361 119.434 15.5161 119.794 16.6161C120.154 17.7161 120.334 18.9461 120.334 20.3061V29.0361H116.674V20.9061C116.674 20.3261 116.634 19.7661 116.554 19.2261C116.474 18.6661 116.314 18.1661 116.074 17.7261C115.854 17.2861 115.534 16.9361 115.114 16.6761C114.694 16.4161 114.134 16.2861 113.434 16.2861C112.574 16.2861 111.844 16.5161 111.244 16.9761C110.644 17.4361 110.194 18.0561 109.894 18.8361C109.594 19.5961 109.444 20.4661 109.444 21.4461V29.0361H105.784ZM123.772 29.0361V13.2261H127.432V29.0361H123.772ZM125.602 11.3961C124.902 11.3961 124.342 11.1861 123.922 10.7661C123.502 10.3461 123.292 9.79613 123.292 9.11613C123.292 8.45613 123.512 7.91613 123.952 7.49613C124.392 7.05613 124.942 6.83613 125.602 6.83613C126.242 6.83613 126.792 7.04613 127.252 7.46613C127.712 7.88613 127.942 8.43613 127.942 9.11613C127.942 9.79613 127.722 10.3461 127.282 10.7661C126.842 11.1861 126.282 11.3961 125.602 11.3961ZM130.979 29.0361V13.2261H134.399L134.609 15.2361C135.029 14.6761 135.519 14.2361 136.079 13.9161C136.639 13.5961 137.229 13.3661 137.849 13.2261C138.469 13.0661 139.049 12.9861 139.589 12.9861C141.089 12.9861 142.269 13.3161 143.129 13.9761C144.009 14.6361 144.629 15.5161 144.989 16.6161C145.349 17.7161 145.529 18.9461 145.529 20.3061V29.0361H141.869V20.9061C141.869 20.3261 141.829 19.7661 141.749 19.2261C141.669 18.6661 141.509 18.1661 141.269 17.7261C141.049 17.2861 140.729 16.9361 140.309 16.6761C139.889 16.4161 139.329 16.2861 138.629 16.2861C137.769 16.2861 137.039 16.5161 136.439 16.9761C135.839 17.4361 135.389 18.0561 135.089 18.8361C134.789 19.5961 134.639 20.4661 134.639 21.4461V29.0361H130.979ZM156.317 36.2661C155.157 36.2661 154.067 36.0761 153.047 35.6961C152.047 35.3361 151.197 34.7561 150.497 33.9561C149.817 33.1761 149.357 32.1661 149.117 30.9261H152.867C152.987 31.4061 153.227 31.7961 153.587 32.0961C153.947 32.3961 154.367 32.6061 154.847 32.7261C155.347 32.8661 155.857 32.9361 156.377 32.9361C157.357 32.9361 158.127 32.7361 158.687 32.3361C159.267 31.9361 159.677 31.3861 159.917 30.6861C160.157 30.0061 160.277 29.2561 160.277 28.4361V26.9361C159.917 27.5161 159.457 27.9761 158.897 28.3161C158.357 28.6561 157.777 28.8961 157.157 29.0361C156.557 29.1561 155.957 29.2161 155.357 29.2161C153.717 29.2161 152.377 28.8561 151.337 28.1361C150.317 27.4161 149.567 26.4561 149.087 25.2561C148.607 24.0361 148.367 22.6961 148.367 21.2361C148.367 19.7161 148.627 18.3361 149.147 17.0961C149.687 15.8361 150.487 14.8361 151.547 14.0961C152.627 13.3561 153.977 12.9861 155.597 12.9861C156.537 12.9861 157.417 13.1561 158.237 13.4961C159.077 13.8161 159.777 14.3061 160.337 14.9661L160.577 13.2261H163.967V27.6561C163.967 29.4361 163.707 30.9661 163.187 32.2461C162.687 33.5461 161.877 34.5361 160.757 35.2161C159.637 35.9161 158.157 36.2661 156.317 36.2661ZM156.107 25.9761C157.047 25.9761 157.827 25.7561 158.447 25.3161C159.067 24.8561 159.537 24.2561 159.857 23.5161C160.177 22.7561 160.337 21.9361 160.337 21.0561C160.337 20.1561 160.177 19.3461 159.857 18.6261C159.557 17.9061 159.097 17.3361 158.477 16.9161C157.877 16.4961 157.097 16.2861 156.137 16.2861C155.117 16.2861 154.307 16.5161 153.707 16.9761C153.107 17.4361 152.667 18.0461 152.387 18.8061C152.127 19.5461 151.997 20.3361 151.997 21.1761C151.997 22.0561 152.137 22.8661 152.417 23.6061C152.697 24.3261 153.137 24.9061 153.737 25.3461C154.337 25.7661 155.127 25.9761 156.107 25.9761Z" fill="white"/>
</svg>
