<svg width="31" height="30" viewBox="0 0 31 30" fill="none" xmlns="http://www.w3.org/2000/svg">
<g clip-path="url(#clip0_1371_78)">
<path d="M24.4533 18.583C23.8391 17.9435 23.0983 17.6016 22.3131 17.6016C21.5343 17.6016 20.7872 17.9372 20.1477 18.5767L18.1469 20.5712C17.9823 20.4826 17.8176 20.4002 17.6593 20.3179C17.4314 20.204 17.2161 20.0963 17.0325 19.9823C15.1583 18.792 13.4551 17.2407 11.8215 15.2336C11.03 14.2332 10.4982 13.391 10.1119 12.5363C10.6311 12.0614 11.1124 11.5675 11.5809 11.0926C11.7582 10.9153 11.9355 10.7317 12.1128 10.5544C13.4424 9.22478 13.4424 7.50256 12.1128 6.1729L10.3842 4.44435C10.1879 4.24806 9.98531 4.04545 9.79536 3.84283C9.41546 3.45027 9.01656 3.04504 8.605 2.66514C7.99083 2.05729 7.25635 1.73438 6.48388 1.73438C5.71141 1.73438 4.96427 2.05729 4.3311 2.66514C4.32477 2.67147 4.32477 2.67147 4.31844 2.6778L2.16566 4.84957C1.3552 5.66003 0.892986 6.64778 0.791679 7.79382C0.639718 9.64268 1.18424 11.3649 1.60214 12.4919C2.62787 15.2589 4.16015 17.8232 6.44589 20.5712C9.21918 23.8827 12.556 26.4977 16.3677 28.3402C17.824 29.0304 19.7678 29.8471 21.9396 29.9864C22.0725 29.9928 22.2118 29.9991 22.3385 29.9991C23.8011 29.9991 25.0294 29.4736 25.9919 28.4288C25.9982 28.4162 26.0109 28.4098 26.0172 28.3972C26.3464 27.9983 26.7263 27.6374 27.1252 27.2511C27.3975 26.9915 27.6761 26.7193 27.9484 26.4344C28.5752 25.7822 28.9045 25.0224 28.9045 24.2436C28.9045 23.4585 28.5689 22.705 27.9294 22.0718L24.4533 18.583ZM26.72 25.2503C26.7137 25.2567 26.7137 25.2503 26.72 25.2503C26.4731 25.5163 26.2198 25.7569 25.9475 26.0228C25.536 26.4154 25.1181 26.8269 24.7255 27.2891C24.086 27.973 23.3326 28.2959 22.3448 28.2959C22.2498 28.2959 22.1485 28.2959 22.0535 28.2895C20.173 28.1692 18.4255 27.4348 17.1148 26.8079C13.5311 25.073 10.3842 22.61 7.76922 19.4885C5.61011 16.8861 4.16648 14.4801 3.21039 11.8968C2.62154 10.3202 2.40626 9.09182 2.50124 7.93311C2.56456 7.19231 2.84948 6.57813 3.37501 6.0526L5.53413 3.89349C5.84438 3.60223 6.17363 3.44394 6.49655 3.44394C6.89544 3.44394 7.21836 3.68454 7.42097 3.88715C7.42731 3.89349 7.43364 3.89982 7.43997 3.90615C7.8262 4.26706 8.19344 4.64063 8.57968 5.03953C8.77596 5.24214 8.97857 5.44475 9.18119 5.6537L10.9097 7.38226C11.5809 8.05342 11.5809 8.67392 10.9097 9.34509C10.7261 9.5287 10.5488 9.71232 10.3652 9.88961C9.83335 10.4341 9.32682 10.9407 8.77596 11.4345C8.7633 11.4472 8.75063 11.4535 8.7443 11.4662C8.19977 12.0107 8.30108 12.5426 8.41505 12.9035C8.42138 12.9225 8.42772 12.9415 8.43405 12.9605C8.8836 14.0495 9.51677 15.0753 10.4792 16.2973L10.4855 16.3036C12.2331 18.4564 14.0756 20.1343 16.1081 21.4196C16.3677 21.5843 16.6336 21.7172 16.8869 21.8439C17.1148 21.9578 17.3301 22.0655 17.5137 22.1795C17.539 22.1921 17.5644 22.2111 17.5897 22.2238C17.805 22.3314 18.0076 22.3821 18.2165 22.3821C18.7421 22.3821 19.0713 22.0528 19.179 21.9452L21.3444 19.7797C21.5597 19.5645 21.9016 19.3049 22.3005 19.3049C22.693 19.3049 23.016 19.5518 23.2122 19.7671C23.2186 19.7734 23.2186 19.7734 23.2249 19.7797L26.7137 23.2685C27.3658 23.9143 27.3658 24.5792 26.72 25.2503Z" fill="#FF6600"/>
<path d="M16.9536 7.13318C18.6125 7.41177 20.1194 8.1969 21.3225 9.39993C22.5255 10.603 23.3043 12.1099 23.5892 13.7688C23.6589 14.1867 24.0198 14.478 24.4313 14.478C24.482 14.478 24.5263 14.4716 24.577 14.4653C25.0455 14.3893 25.3558 13.9461 25.2798 13.4775C24.9379 11.4704 23.9881 9.64053 22.5382 8.19057C21.0882 6.74061 19.2583 5.79086 17.2512 5.44894C16.7826 5.37296 16.3457 5.68322 16.2634 6.14543C16.1811 6.60765 16.485 7.0572 16.9536 7.13318Z" fill="#FF6600"/>
<path d="M30.7056 13.2336C30.1421 9.92848 28.5845 6.92092 26.1911 4.52754C23.7977 2.13415 20.7902 0.576553 17.485 0.0130316C17.0228 -0.0692806 16.5859 0.247305 16.5036 0.709519C16.4276 1.17807 16.7379 1.61495 17.2064 1.69727C20.157 2.19747 22.848 3.59678 24.9881 5.73056C27.1282 7.87068 28.5212 10.5617 29.0214 13.5122C29.0911 13.9301 29.452 14.2214 29.8635 14.2214C29.9142 14.2214 29.9585 14.215 30.0092 14.2087C30.4714 14.1391 30.788 13.6958 30.7056 13.2336Z" fill="#FF6600"/>
</g>
<defs>
<clipPath id="clip0_1371_78">
<rect width="30" height="30" fill="white" transform="translate(0.742188)"/>
</clipPath>
</defs>
</svg>
