<svg width="41" height="41" viewBox="0 0 41 41" fill="none" xmlns="http://www.w3.org/2000/svg">
<g clip-path="url(#clip0_167_2461)">
<path d="M20.8086 1.24841C12.3652 1.24841 5.49609 8.11755 5.49609 16.5609C5.49609 20.6625 7.98102 25.9297 12.8818 32.2154C15.1271 35.0879 17.5586 37.8097 20.1606 40.3634C20.3351 40.5303 20.5672 40.6234 20.8086 40.6234C21.05 40.6234 21.2821 40.5303 21.4566 40.3634C24.0586 37.8097 26.4901 35.0879 28.7354 32.2154C33.6362 25.9297 36.1211 20.6625 36.1211 16.5609C36.1211 8.11755 29.252 1.24841 20.8086 1.24841ZM20.8086 38.3665C18.0415 35.5772 7.37109 24.3162 7.37109 16.5609C7.37109 9.15146 13.3991 3.12341 20.8086 3.12341C28.218 3.12341 34.2461 9.15146 34.2461 16.5609C34.2461 24.3162 23.5757 35.5772 20.8086 38.3665Z" fill="white"/>
<path d="M28.3142 15.2422L21.4392 8.99224C21.2666 8.83537 21.0418 8.74844 20.8086 8.74844C20.5753 8.74844 20.3505 8.83537 20.1779 8.99224L13.3029 15.2422C13.1629 15.3695 13.0647 15.5362 13.0212 15.7203C12.9777 15.9045 12.9909 16.0975 13.0592 16.274C13.1274 16.4505 13.2474 16.6022 13.4035 16.7092C13.5596 16.8161 13.7443 16.8734 13.9336 16.8734H14.8711V21.5609C14.8711 21.8096 14.9698 22.048 15.1457 22.2238C15.3215 22.3996 15.5599 22.4984 15.8086 22.4984H19.2461C19.4947 22.4984 19.7332 22.3996 19.909 22.2238C20.0848 22.048 20.1836 21.8096 20.1836 21.5609V18.7484H21.4336V21.5609C21.4336 21.8096 21.5323 22.048 21.7082 22.2238C21.884 22.3996 22.1224 22.4984 22.3711 22.4984H25.8086C26.0572 22.4984 26.2957 22.3996 26.4715 22.2238C26.6473 22.048 26.7461 21.8096 26.7461 21.5609V16.8734H27.6836C27.8728 16.8734 28.0576 16.8161 28.2136 16.7092C28.3697 16.6022 28.4897 16.4505 28.558 16.274C28.6262 16.0975 28.6394 15.9045 28.5959 15.7203C28.5524 15.5362 28.4542 15.3695 28.3142 15.2422ZM24.8711 15.9359V20.6234H23.3086V17.8109C23.3086 17.5623 23.2098 17.3238 23.034 17.148C22.8582 16.9722 22.6197 16.8734 22.3711 16.8734H19.2461C18.9974 16.8734 18.759 16.9722 18.5832 17.148C18.4073 17.3238 18.3086 17.5623 18.3086 17.8109V20.6234H16.7461V15.9359C16.7461 15.7645 16.6991 15.5963 16.6102 15.4497C16.5214 15.303 16.394 15.1836 16.2419 15.1044L20.8086 10.9529L25.3752 15.1044C25.2232 15.1836 25.0958 15.303 25.0069 15.4497C24.918 15.5963 24.871 15.7645 24.8711 15.9359Z" fill="white"/>
</g>
<defs>
<clipPath id="clip0_167_2461">
<rect width="40" height="40" fill="white" transform="translate(0.808594 0.935913)"/>
</clipPath>
</defs>
</svg>
