<svg width="41" height="41" viewBox="0 0 41 41" fill="none" xmlns="http://www.w3.org/2000/svg">
<g clip-path="url(#clip0_167_2442)">
<path d="M33.4865 5.78036C30.0654 5.78036 27.1847 8.13849 26.3845 11.3147H3.73582C2.97043 11.3147 2.24723 11.608 1.69785 12.1411C1.6973 12.1416 1.69668 12.1422 1.69613 12.1427C1.69434 12.1445 1.69246 12.1462 1.69059 12.148C1.12246 12.7033 0.80957 13.4466 0.80957 14.2409V33.1652C0.80957 33.9712 1.14691 34.7492 1.73488 35.2998C1.73605 35.3009 1.73723 35.3021 1.7384 35.3032C2.2823 35.8115 2.9916 36.0915 3.73582 36.0915H31.3415C32.0834 36.0915 32.7907 35.8133 33.3336 35.3083C33.3375 35.3047 33.3414 35.3011 33.3452 35.2974C33.9315 34.7466 34.2677 33.97 34.2677 33.1653V20.3851C37.9398 19.994 40.8096 16.8776 40.8096 13.1034C40.8096 9.06552 37.5245 5.78036 33.4865 5.78036ZM3.73582 12.8772H26.167C26.1647 12.9523 26.1636 13.0277 26.1636 13.1034C26.1636 14.5026 26.558 15.8113 27.2414 16.9243L18.0493 25.6136H17.0282L3.56551 12.8876C3.6216 12.8807 3.67848 12.8772 3.73582 12.8772ZM2.37207 14.2409C2.37207 14.1386 2.38324 14.0382 2.40496 13.9408L13.3495 24.2865L2.4327 33.569C2.39309 33.4402 2.37207 33.3047 2.37207 33.1652V14.2409ZM31.3415 34.529H3.73582C3.72941 34.529 3.72316 34.5282 3.71684 34.5281L14.4918 25.3661L16.1807 26.9626C16.3257 27.0997 16.5178 27.1761 16.7174 27.1761H18.3601C18.5597 27.1761 18.7518 27.0997 18.8968 26.9626L20.5857 25.3661L31.3614 34.5288C31.3548 34.5289 31.3482 34.529 31.3415 34.529ZM32.7053 33.1652C32.7053 33.3047 32.6847 33.4404 32.645 33.5693L21.7279 24.2864L28.2012 18.1672C29.3654 19.3819 30.9429 20.1974 32.7053 20.3851V33.1652ZM33.4865 18.864C30.3101 18.864 27.726 16.2798 27.726 13.1034C27.726 9.92701 30.3101 7.34287 33.4865 7.34287C36.6629 7.34287 39.2471 9.92701 39.2471 13.1034C39.2471 16.2798 36.6629 18.864 33.4865 18.864Z" fill="white"/>
<path d="M33.7492 10.6015H32.9141C32.4826 10.6015 32.1328 10.9513 32.1328 11.3827C32.1328 11.8141 32.4826 12.164 32.9141 12.164H32.968V15.2883C32.968 15.7197 33.3177 16.0695 33.7492 16.0695C34.1807 16.0695 34.5305 15.7197 34.5305 15.2883V11.3827C34.5305 10.9512 34.1807 10.6015 33.7492 10.6015Z" fill="white"/>
</g>
<defs>
<clipPath id="clip0_167_2442">
<rect width="40" height="40" fill="white" transform="translate(0.80957 0.935913)"/>
</clipPath>
</defs>
</svg>
