<svg width="41" height="41" viewBox="0 0 41 41" fill="none" xmlns="http://www.w3.org/2000/svg">
<path d="M27.3664 39.5079C27.2003 39.5079 27.033 39.4933 26.8669 39.4635C21.1472 38.4339 15.4456 35.3161 10.8128 30.6833C6.18007 26.0506 3.06225 20.349 2.03266 14.6293C1.83868 13.5498 2.29104 12.4272 3.18516 11.7691C4.33019 10.9264 5.56397 10.143 6.85155 9.44207C7.70522 8.97754 8.71164 8.95162 9.54568 9.37178C12.3969 10.809 14.2868 13.2027 15.1629 16.4862C15.4004 17.3749 15.1888 18.3385 14.597 19.0633L12.7079 21.375C12.4051 21.7457 12.3682 22.257 12.6164 22.6473C14.2236 25.1761 16.3201 27.2726 18.8489 28.8794C19.2388 29.128 19.7501 29.0907 20.1211 28.7883L22.4324 26.8995C23.1577 26.3074 24.1201 26.0961 25.0103 26.3333C28.2935 27.2097 30.6872 29.0997 32.1244 31.9509C32.5449 32.7841 32.519 33.7909 32.0545 34.6446C31.3532 35.9322 30.5698 37.166 29.7267 38.311C29.1703 39.0673 28.2809 39.5079 27.3664 39.5079ZM8.28127 10.8832C8.09239 10.8832 7.89763 10.9327 7.717 11.0312C6.50089 11.6933 5.3374 12.4319 4.25794 13.2263C3.91514 13.4788 3.74079 13.9036 3.81383 14.3089C4.77823 19.6689 7.71817 25.0296 12.0922 29.404C16.4665 33.778 21.8273 36.7179 27.1873 37.6823C27.5933 37.755 28.0174 37.5806 28.2695 37.2382C29.0643 36.1588 29.8029 34.9953 30.4653 33.7792C30.6456 33.4478 30.6621 33.0688 30.5089 32.7657C29.2967 30.3613 27.3455 28.8291 24.5434 28.0815C24.2152 27.9943 23.8531 28.0756 23.5771 28.301L21.2662 30.1894C20.2896 30.9873 18.9274 31.0744 17.8782 30.4065C15.124 28.6564 12.8398 26.3722 11.0893 23.618C10.4217 22.568 10.5089 21.2062 11.3068 20.23L13.1956 17.9187C13.4206 17.6431 13.5026 17.2822 13.4147 16.9531C12.667 14.1506 11.1348 12.1994 8.73088 10.9872C8.59266 10.9177 8.43912 10.8832 8.28127 10.8832Z" fill="#fff"/>
<path d="M39.069 21.4583C39.056 21.4583 39.0431 21.4579 39.0305 21.4575C38.531 21.4367 38.1435 21.0149 38.1643 20.5158C38.3575 15.9055 36.6034 11.3964 33.3521 8.14429C30.1004 4.89295 25.6007 3.12985 20.9805 3.33208C20.4999 3.34464 20.0597 2.96571 20.0389 2.46584C20.0181 1.96675 20.4056 1.54502 20.9047 1.52421C26.0201 1.30745 31.0223 3.25629 34.6314 6.86496C38.2401 10.4736 40.1866 15.4771 39.9722 20.5916C39.9517 21.0778 39.5512 21.4583 39.069 21.4583Z" fill="white"/>
<path d="M34.2552 21.4583C34.2376 21.4583 34.2195 21.4579 34.2014 21.4567C33.7024 21.4272 33.3219 20.9992 33.3513 20.5005C33.5476 17.1648 32.3092 13.9001 29.9527 11.5437C27.5963 9.18723 24.3296 7.95188 20.9958 8.14508C20.4944 8.17845 20.0691 7.79403 20.0397 7.29494C20.0102 6.79624 20.3907 6.36823 20.8898 6.33878C24.7365 6.10985 28.5108 7.54271 31.232 10.2643C33.9537 12.9859 35.3846 16.7556 35.1576 20.6066C35.1293 21.0876 34.7308 21.4583 34.2552 21.4583Z" fill="white"/>
<path d="M29.447 21.4583C29.4187 21.4583 29.3904 21.4571 29.3618 21.4543C28.8642 21.408 28.4987 20.967 28.545 20.4695C28.7366 18.415 28.011 16.4006 26.5534 14.943C25.0957 13.4858 23.0829 12.7594 21.0269 12.9514C20.5297 12.9966 20.088 12.6322 20.042 12.1346C19.9957 11.6371 20.3613 11.1961 20.8588 11.1498C23.4536 10.9083 25.9934 11.8244 27.8327 13.6637C29.6724 15.503 30.5885 18.0452 30.3466 20.6376C30.303 21.1064 29.9087 21.4583 29.447 21.4583Z" fill="white"/>
</svg>
